# xmcd
#
# Track frame offsets: 
#        150
#        19644
#        34484
#        53790
#        64126
#        77893
#        90522
#
# Disc length: 1407 seconds
#
# Revision: 0
# Processed by: cddbd v1.5.2PL0 Copyright (c) Steve Scherf et al.
# Submitted via: ExactAudioCopy v0.95a5
#
DISCID=53057d07
DTITLE=Kym Franklin - Let The Beauty Be
DYEAR=2003
DGENRE=Gospel
TTITLE0=Beauty
TTITLE1=Mama Said
TTITLE2=Have Faith In Love
TTITLE3=Flowing
TTITLE4=How Can You Turn Your Back
TTITLE5=The Prayer
TTITLE6=Motherless Child
EXTD=
EXTT0=
EXTT1=
EXTT2=
EXTT3=
EXTT4=
EXTT5=
EXTT6=
PLAYORDER=
